<?xml version="1.0" standalone="no"?>
<!DOCTYPE svg PUBLIC "-//W3C//DTD SVG 20010904//EN"
 "http://www.w3.org/TR/2001/REC-SVG-20010904/DTD/svg10.dtd">
<svg version="1.0" xmlns="http://www.w3.org/2000/svg"
 width="2481.000000pt" height="2481.000000pt" viewBox="0 0 2481.000000 2481.000000"
 preserveAspectRatio="xMidYMid meet">
<metadata>
Created by potrace 1.11, written by Peter Selinger 2001-2013
</metadata>
<g transform="translate(0.000000,2481.000000) scale(0.100000,-0.100000)"
fill="#000000" stroke="none">
<path d="M12029 23756 c-2 -2 -83 -7 -179 -10 -96 -4 -191 -9 -210 -11 -19 -1
-80 -6 -134 -10 -55 -4 -109 -8 -120 -10 -12 -2 -55 -6 -97 -10 -42 -3 -85 -7
-95 -9 -11 -2 -54 -7 -97 -11 -43 -3 -88 -8 -100 -10 -12 -2 -60 -9 -107 -15
-766 -99 -1612 -308 -2375 -585 -133 -48 -456 -175 -510 -200 -16 -7 -86 -38
-155 -68 -212 -93 -287 -128 -525 -248 -261 -131 -344 -175 -465 -244 -47 -27
-94 -53 -105 -60 -11 -6 -69 -40 -128 -75 -59 -36 -116 -69 -125 -75 -87 -50
-484 -310 -587 -383 -152 -108 -378 -273 -385 -282 -3 -3 -23 -18 -45 -34
-163 -119 -582 -473 -800 -676 -188 -175 -603 -598 -735 -749 -30 -35 -69 -78
-87 -97 -17 -19 -49 -55 -70 -81 -21 -26 -49 -58 -62 -72 -24 -26 -260 -320
-339 -421 -61 -79 -271 -365 -312 -426 -93 -137 -232 -348 -280 -424 -29 -47
-72 -115 -96 -152 -24 -37 -44 -70 -44 -72 0 -2 -33 -60 -73 -128 -71 -119
-107 -182 -209 -373 -60 -110 -222 -435 -265 -530 -17 -38 -50 -110 -73 -160
-51 -113 -58 -128 -103 -235 -110 -258 -347 -901 -372 -1010 -1 -9 -26 -92
-53 -185 -46 -155 -96 -334 -108 -385 -2 -11 -6 -28 -9 -37 -16 -62 -77 -322
-90 -388 -10 -44 -19 -89 -22 -100 -4 -22 -7 -34 -29 -150 -8 -44 -17 -89 -19
-100 -33 -167 -92 -569 -110 -748 -4 -32 -8 -66 -10 -75 -1 -9 -6 -55 -10
-102 -4 -47 -9 -103 -11 -125 -2 -22 -6 -71 -9 -110 -3 -38 -8 -90 -10 -116
-27 -328 -28 -1157 0 -1534 12 -161 17 -224 20 -255 2 -19 6 -71 10 -115 3
-44 10 -105 15 -135 5 -30 11 -84 14 -120 3 -36 8 -74 10 -85 4 -21 15 -103
23 -165 8 -67 11 -85 27 -175 8 -49 18 -112 22 -140 3 -27 8 -53 10 -56 2 -4
6 -24 10 -45 3 -22 21 -115 40 -209 20 -93 38 -183 41 -200 7 -42 151 -614
162 -645 5 -14 19 -59 30 -100 70 -243 278 -847 336 -975 7 -16 28 -66 45
-110 31 -78 41 -103 73 -176 9 -19 32 -71 50 -115 127 -293 361 -755 543
-1070 31 -55 66 -115 77 -134 11 -19 28 -47 38 -62 11 -14 19 -31 19 -37 0 -6
5 -11 10 -11 6 0 10 -5 10 -10 0 -6 15 -34 34 -63 18 -28 50 -79 71 -112 66
-103 277 -419 299 -447 12 -15 41 -55 66 -90 126 -180 414 -549 567 -728 72
-84 206 -235 291 -330 116 -128 563 -574 686 -685 55 -50 107 -97 116 -106 39
-37 311 -269 380 -324 41 -33 80 -64 86 -70 19 -17 80 -65 228 -177 78 -59
146 -111 151 -115 94 -77 577 -402 763 -514 392 -237 492 -294 857 -478 222
-113 272 -137 510 -243 107 -49 415 -177 485 -203 340 -125 441 -161 585 -208
212 -69 655 -198 725 -211 14 -2 43 -9 65 -14 66 -17 428 -100 460 -105 17 -3
55 -10 85 -16 30 -6 66 -13 80 -16 52 -10 146 -27 165 -30 25 -3 211 -34 245
-40 23 -4 91 -13 150 -20 14 -1 61 -8 105 -13 44 -6 105 -14 135 -17 30 -3 71
-8 90 -10 75 -10 144 -17 189 -20 25 -1 82 -6 126 -10 413 -36 1285 -42 1660
-10 22 2 83 6 135 9 52 4 109 8 125 11 17 2 62 7 100 11 96 9 133 12 180 18
22 3 67 8 100 12 33 3 67 8 75 9 9 2 43 6 75 10 33 4 67 9 77 11 9 1 38 5 65
9 100 14 293 47 418 71 72 14 141 28 155 30 14 2 66 14 115 25 50 12 101 23
115 25 14 2 36 7 50 10 14 3 32 7 40 9 31 6 299 74 395 100 202 54 578 171
745 231 207 74 379 138 405 149 17 7 89 36 160 65 72 29 158 65 193 81 35 16
65 29 67 29 6 0 99 43 241 110 67 32 132 61 145 65 13 4 29 11 34 15 6 4 89
48 185 97 255 131 619 333 716 398 17 11 57 36 88 55 208 126 541 351 786 532
226 166 553 431 755 610 16 14 41 36 55 48 158 137 652 624 810 799 47 52 90
99 95 105 11 12 143 163 185 212 21 24 198 238 244 294 85 105 311 410 431
580 59 83 205 300 205 303 0 2 26 44 58 93 99 151 337 554 376 634 4 8 29 56
57 105 86 155 293 581 384 790 47 110 91 209 95 220 76 173 230 591 321 875
44 138 164 551 174 597 2 10 20 83 40 163 20 80 39 159 41 175 3 17 7 37 10
45 5 15 53 238 60 280 3 14 7 36 9 50 3 14 8 37 10 53 3 15 7 39 10 55 12 58
59 348 70 425 25 180 29 209 40 312 4 33 9 72 11 88 2 15 7 62 9 104 3 43 7
89 10 103 2 14 7 66 10 115 4 50 8 110 10 135 27 340 27 1154 0 1530 -8 113
-22 283 -30 358 -3 28 -8 78 -11 110 -3 31 -7 68 -9 82 -2 14 -9 66 -15 115
-13 104 -19 148 -25 190 -3 17 -7 48 -10 70 -5 33 -26 160 -60 360 -2 17 -9
53 -15 80 -5 28 -17 86 -26 130 -9 44 -21 100 -26 125 -5 25 -11 56 -14 70 -3
14 -9 41 -14 60 -5 19 -11 46 -14 60 -6 33 -69 284 -96 385 -12 44 -26 96 -32
115 -34 131 -153 507 -220 695 -82 231 -221 587 -277 710 -10 22 -31 69 -46
105 -72 174 -321 674 -447 900 -17 30 -42 75 -56 100 -14 25 -59 102 -101 173
-42 70 -81 135 -86 145 -42 71 -111 180 -200 315 -161 244 -218 326 -419 597
-49 66 -368 466 -423 530 -236 275 -350 397 -628 675 -240 241 -312 309 -459
440 -44 39 -84 75 -90 80 -6 6 -56 49 -111 95 -55 47 -102 87 -105 90 -17 19
-409 327 -512 402 -13 9 -55 41 -95 70 -39 29 -80 59 -90 65 -10 7 -69 48
-130 90 -116 80 -331 222 -389 258 -18 11 -82 50 -141 86 -59 37 -124 76 -143
87 -19 11 -73 42 -120 69 -47 27 -110 63 -140 80 -30 16 -73 40 -95 53 -140
80 -815 410 -838 410 -3 0 -38 15 -79 34 -40 19 -109 49 -153 66 -44 17 -93
38 -110 45 -163 71 -725 268 -970 340 -245 72 -695 188 -805 209 -14 2 -59 12
-100 21 -41 9 -86 18 -100 21 -14 2 -45 9 -70 14 -25 5 -61 12 -80 15 -19 3
-42 8 -50 10 -8 2 -31 7 -50 9 -29 4 -132 21 -240 40 -14 3 -77 12 -140 21
-63 9 -126 18 -140 20 -14 2 -56 7 -95 11 -38 3 -78 8 -88 10 -16 3 -47 6
-182 19 -16 2 -68 6 -115 10 -47 4 -98 9 -115 11 -16 2 -84 6 -150 9 -66 4
-131 9 -145 12 -29 5 -965 14 -971 9z"/>
</g>
</svg>
