<?xml version="1.0" encoding="UTF-8" standalone="no"?>
<!DOCTYPE svg PUBLIC "-//W3C//DTD SVG 1.1//EN" "http://www.w3.org/Graphics/SVG/1.1/DTD/svg11.dtd">
<svg width="100%" height="100%" viewBox="0 0 800 800" version="1.1" xmlns="http://www.w3.org/2000/svg" xmlns:xlink="http://www.w3.org/1999/xlink" xml:space="preserve" xmlns:serif="http://www.serif.com/" style="fill-rule:evenodd;clip-rule:evenodd;stroke-linejoin:round;stroke-miterlimit:2;">
    <g transform="matrix(1.13456,0,0,1.13456,-63.542,-62.9833)">
        <circle cx="408.565" cy="408.072" r="352.559" style="fill:rgb(30,32,35);"/>
    </g>
    <g transform="matrix(1.05828,0,0,1.05828,80.5437,-222.518)">
        <g transform="matrix(643.106,0,0,643.106,244.58,731.936)">
            <path d="M0.083,-0.298C0.083,-0.323 0.078,-0.341 0.069,-0.351C0.063,-0.358 0.055,-0.364 0.045,-0.367C0.036,-0.37 0.028,-0.371 0.022,-0.371C0.016,-0.371 0.013,-0.372 0.013,-0.373C0.013,-0.389 0.015,-0.397 0.019,-0.397C0.088,-0.408 0.132,-0.416 0.153,-0.423C0.154,-0.423 0.155,-0.423 0.156,-0.423C0.158,-0.424 0.158,-0.424 0.158,-0.424C0.161,-0.424 0.162,-0.421 0.163,-0.416C0.164,-0.41 0.164,-0.406 0.163,-0.403C0.16,-0.377 0.158,-0.354 0.158,-0.333L0.158,-0.066C0.158,0.016 0.146,0.077 0.12,0.117C0.104,0.143 0.083,0.165 0.058,0.185C0.033,0.204 0.01,0.218 -0.011,0.226C-0.017,0.222 -0.021,0.217 -0.023,0.211C-0.025,0.208 -0.025,0.205 -0.023,0.204L-0.012,0.198C-0.004,0.194 0.005,0.188 0.015,0.178C0.025,0.168 0.035,0.155 0.046,0.139C0.056,0.122 0.065,0.098 0.072,0.066C0.079,0.035 0.083,-0.002 0.083,-0.044L0.083,-0.298ZM0.071,-0.544C0.062,-0.554 0.058,-0.565 0.058,-0.579C0.058,-0.593 0.062,-0.604 0.072,-0.614C0.081,-0.623 0.093,-0.628 0.106,-0.628C0.12,-0.628 0.132,-0.623 0.141,-0.614C0.151,-0.604 0.155,-0.593 0.155,-0.579C0.155,-0.565 0.151,-0.554 0.141,-0.544C0.132,-0.535 0.12,-0.53 0.106,-0.53C0.093,-0.53 0.081,-0.535 0.071,-0.544Z" style="fill:white;fill-rule:nonzero;"/>
        </g>
    </g>
</svg>
