<?xml version="1.0" encoding="UTF-8" standalone="no"?>
<!DOCTYPE svg PUBLIC "-//W3C//DTD SVG 1.1//EN" "http://www.w3.org/Graphics/SVG/1.1/DTD/svg11.dtd">
<svg width="100%" height="100%" viewBox="0 0 100 100" version="1.1" xmlns="http://www.w3.org/2000/svg" xmlns:xlink="http://www.w3.org/1999/xlink" xml:space="preserve" xmlns:serif="http://www.serif.com/" style="fill-rule:evenodd;clip-rule:evenodd;stroke-linejoin:round;stroke-miterlimit:2;">
    <g transform="matrix(1.15101,0,0,1.15101,-7.55059,-7.55059)">
        <path d="M24.911,15.194C22.38,15.194 20.299,17.24 20.299,19.79L20.299,35.82L18.611,35.82C18.189,35.82 17.767,35.904 17.374,36.015C17.233,36.072 17.093,36.099 16.952,36.156C16.445,36.38 15.968,36.717 15.574,37.109C15.377,37.304 15.179,37.501 15.011,37.754C14.561,38.454 14.28,39.267 14.28,40.163L14.28,80.463C14.28,81.808 14.898,83.013 15.855,83.825L15.882,83.825C15.995,83.909 16.079,83.993 16.192,84.078C16.192,84.078 16.22,84.05 16.22,84.078C16.332,84.134 16.445,84.218 16.558,84.273C16.558,84.301 16.585,84.273 16.585,84.273C16.698,84.357 16.811,84.414 16.923,84.469L16.951,84.469C17.204,84.553 17.485,84.637 17.738,84.694C17.766,84.722 17.795,84.694 17.795,84.694C17.936,84.722 18.048,84.778 18.16,84.778L18.217,84.778C18.358,84.806 18.498,84.806 18.611,84.806L81.388,84.806C82.71,84.806 83.92,84.189 84.736,83.237C85.354,82.48 85.72,81.499 85.72,80.463L85.72,40.163C85.72,38.986 85.241,37.893 84.454,37.109L84.426,37.109C84.229,36.912 84.032,36.716 83.807,36.548C83.807,36.548 83.78,36.575 83.78,36.548C83.554,36.407 83.33,36.267 83.077,36.155L83.049,36.155C82.908,36.098 82.796,36.043 82.683,36.014L82.656,36.014C82.515,35.987 82.375,35.958 82.261,35.93C82.234,35.903 82.234,35.93 82.234,35.93C82.093,35.903 81.953,35.846 81.839,35.846L81.812,35.846C81.671,35.819 81.531,35.819 81.389,35.819L79.7,35.819L79.7,19.79C79.7,17.24 77.619,15.194 75.116,15.194L24.911,15.194ZM24.911,16.791L75.116,16.791C76.775,16.791 78.097,18.108 78.097,19.79L78.097,48.654L60.856,59.584L60.828,59.584L60.828,59.612L60.771,59.639L53.543,64.207C52.84,64.655 51.939,64.964 50.955,65.075C50.645,65.132 50.336,65.132 49.998,65.132C48.677,65.132 47.383,64.823 46.455,64.207L39.198,59.611L39.142,59.583L21.902,48.683L21.902,19.79C21.902,18.108 23.224,16.791 24.911,16.791ZM29.496,23.91C29.074,23.965 28.736,24.386 28.793,24.806C28.85,25.226 29.299,25.535 29.721,25.478L43.475,25.478C43.897,25.506 44.29,25.115 44.29,24.694C44.29,24.273 43.896,23.91 43.475,23.91L29.496,23.91ZM29.553,31.588C29.158,31.645 28.793,32.037 28.85,32.457C28.877,32.877 29.299,33.213 29.721,33.186L70.279,33.186C70.701,33.186 71.094,32.793 71.094,32.373C71.094,31.952 70.7,31.588 70.279,31.588L29.553,31.588ZM18.611,37.389L20.299,37.389L20.299,47.646L15.856,44.844L15.856,40.163C15.856,39.967 15.883,39.771 15.912,39.603C15.997,39.238 16.138,38.902 16.334,38.622C16.446,38.454 16.56,38.314 16.7,38.201C16.812,38.061 16.953,37.977 17.122,37.865C17.263,37.781 17.403,37.697 17.571,37.613C17.908,37.501 18.246,37.389 18.611,37.389ZM79.7,37.389L81.388,37.389C81.557,37.389 81.754,37.417 81.923,37.446L81.951,37.446C82.119,37.473 82.288,37.557 82.457,37.614C83.47,38.034 84.145,39.014 84.145,40.164L84.145,44.816L79.701,47.646L79.701,37.389L79.7,37.389ZM29.553,39.267C29.158,39.323 28.793,39.744 28.85,40.135C28.877,40.556 29.299,40.893 29.721,40.864L70.279,40.864C70.701,40.864 71.094,40.501 71.094,40.08C71.094,39.659 70.7,39.267 70.279,39.267L29.553,39.267ZM15.855,46.693L20.551,49.664L20.579,49.691C20.607,49.718 20.636,49.748 20.691,49.748L37.341,60.312L15.855,73.932L15.855,46.693ZM84.145,46.693L84.145,73.931L62.656,60.313L66.96,57.567L79.307,49.749C79.364,49.72 79.419,49.692 79.448,49.665L84.145,46.693ZM29.637,46.973C29.215,46.973 28.85,47.394 28.877,47.786C28.905,48.207 29.299,48.571 29.721,48.544L70.279,48.544C70.701,48.544 71.094,48.179 71.094,47.759C71.094,47.339 70.7,46.974 70.279,46.974L29.721,46.974C29.693,46.973 29.665,46.973 29.637,46.973ZM38.806,61.266L45.613,65.553C46.879,66.366 48.426,66.702 50,66.702C50.395,66.702 50.788,66.674 51.154,66.645C52.335,66.505 53.431,66.141 54.388,65.552L61.194,61.265L84.145,75.781L84.145,80.462C84.145,81.414 83.639,82.255 82.908,82.76C82.486,83.04 81.952,83.208 81.388,83.237L18.611,83.237C18.442,83.237 18.273,83.209 18.105,83.18L18.048,83.18C17.879,83.153 17.738,83.068 17.569,83.012C17.401,82.928 17.232,82.844 17.091,82.76C16.95,82.648 16.81,82.564 16.697,82.423C16.556,82.312 16.443,82.171 16.331,82.003C16.05,81.583 15.881,81.05 15.881,80.462L15.881,75.81L38.806,61.266Z" style="fill:rgb(61,63,66);fill-rule:nonzero;stroke:rgb(61,63,66);stroke-width:0.87px;"/>
    </g>
</svg>
