<?xml version="1.0" encoding="UTF-8" standalone="no"?>
<!DOCTYPE svg PUBLIC "-//W3C//DTD SVG 1.1//EN" "http://www.w3.org/Graphics/SVG/1.1/DTD/svg11.dtd">
<svg width="100%" height="100%" viewBox="0 0 200 200" version="1.1" xmlns="http://www.w3.org/2000/svg" xmlns:xlink="http://www.w3.org/1999/xlink" xml:space="preserve" xmlns:serif="http://www.serif.com/" style="fill-rule:evenodd;clip-rule:evenodd;stroke-linecap:round;stroke-linejoin:round;stroke-miterlimit:1.5;">
    <g transform="matrix(1,0,0,1,-7.96104,-10.6615)">
        <circle cx="107.961" cy="110.661" r="88.663" style="fill:rgb(255,224,224);stroke:black;stroke-width:2px;"/>
    </g>
    <g transform="matrix(1,0,0,1,-2.78914,1.58382)">
        <ellipse cx="59.042" cy="66.95" rx="2.763" ry="2.484" style="fill:white;stroke:black;stroke-width:2px;"/>
    </g>
    <g transform="matrix(1,0,0,1,84.705,1.58382)">
        <ellipse cx="59.042" cy="66.95" rx="2.763" ry="2.484" style="fill:white;stroke:black;stroke-width:2px;"/>
    </g>
    <path d="M95.456,85.721C95.731,85.721 96.02,89.968 96.085,90.34C96.438,92.352 97.382,94.611 97.382,96.626" style="fill:none;stroke:black;stroke-width:2px;"/>
    <path d="M70.743,126.228C71.462,126.228 74.049,128.692 74.768,129.069C78.168,130.852 81.767,131.947 85.517,132.697C100.992,135.792 119.548,135.986 134.235,129.684C139.079,127.605 141.826,125.514 144.522,121.258C144.898,120.662 146.847,118.544 146.831,117.612C146.826,117.309 146.44,118.075 146.256,118.316C145.916,118.757 145.642,119.246 145.362,119.727C144.809,120.678 144.284,121.683 143.769,122.666C141.826,126.381 139.615,129.976 137.479,133.583C133.623,140.093 129,145.765 124.154,151.531C120.798,155.524 117.358,159.764 112.551,162.074C106.491,164.988 99.245,164.178 93.276,161.583C89.623,159.995 85.769,158.642 82.653,156.086C73.534,148.61 70.791,136.716 70.791,125.511" style="fill:white;stroke:black;stroke-width:2px;"/>
</svg>
